<svg width="285" height="76" viewBox="0 0 285 76" fill="none" xmlns="http://www.w3.org/2000/svg">
<path d="M0.515625 69.6289C3.60807 69.6289 5.6263 69.3359 6.57031 68.75C7.51432 68.1315 8.11654 67.4805 8.37695 66.7969C8.63737 66.1133 8.76758 65.2832 8.76758 64.3066L8.71875 12.4512C8.71875 10.3353 8.36068 9.01693 7.64453 8.49609C6.34245 7.58464 3.96615 7.12891 0.515625 7.12891V1.75781H28.0059V7.12891C24.9134 7.12891 22.8952 7.43815 21.9512 8.05664C21.0072 8.64258 20.4049 9.27734 20.1445 9.96094C19.8841 10.6445 19.7539 11.4746 19.7539 12.4512V69.3359H36.5996C41.8079 69.3359 45.3887 66.4876 47.3418 60.791L49.2949 55.2734L56.0332 55.3223L52.6641 75H0.515625V69.6289ZM63.1133 38.3789C63.1133 32.194 64.0573 26.709 65.9453 21.9238C67.8333 17.1061 70.3724 13.1348 73.5625 10.0098C79.8451 3.85742 87.8691 0.78125 97.6348 0.78125C107.4 0.78125 115.424 3.80859 121.707 9.86328C128.673 16.5365 132.156 25.9603 132.156 38.1348C132.156 50.3092 128.95 59.668 122.537 66.2109C116.157 72.7214 107.856 75.9766 97.6348 75.9766C87.446 75.9766 79.1452 72.6725 72.7324 66.0645C66.3197 59.4564 63.1133 50.2279 63.1133 38.3789ZM97.7812 69.6289C103.478 69.6289 108.263 67.513 112.137 63.2812C117.02 57.9427 119.461 49.821 119.461 38.916C119.461 28.0111 117.378 19.987 113.211 14.8438C109.044 9.70052 103.803 7.12891 97.4883 7.12891C91.2057 7.12891 86.0137 9.70052 81.9121 14.8438C77.8431 19.9544 75.8086 27.6367 75.8086 37.8906C75.8086 52.6367 79.8451 62.3535 87.918 67.041C90.8802 68.7663 94.168 69.6289 97.7812 69.6289ZM144.949 60.2539C143.322 57.4544 142.052 54.248 141.141 50.6348C140.229 46.9889 139.773 43.278 139.773 39.502C139.773 35.6934 140.066 32.2591 140.652 29.1992C141.271 26.1393 142.199 23.2096 143.436 20.4102C146.072 14.4531 150.092 9.70052 155.496 6.15234C160.9 2.57161 167.54 0.78125 175.418 0.78125C183.296 0.78125 189.855 2.73438 195.096 6.64062C200.337 10.5469 202.957 15.3158 202.957 20.9473C202.957 24.7884 201.427 27.3763 198.367 28.7109C197.423 29.1341 196.414 29.3457 195.34 29.3457C193.257 29.3457 191.564 28.6947 190.262 27.3926C188.96 26.0905 188.309 24.5768 188.309 22.8516C188.309 19.401 189.692 17.0247 192.459 15.7227C191.157 12.9883 188.943 10.8398 185.818 9.27734C182.693 7.68229 179.487 6.88477 176.199 6.88477C169.266 6.88477 163.602 9.47266 159.207 14.6484C154.845 19.8242 152.664 27.5879 152.664 37.9395C152.664 48.2585 154.943 56.1198 159.5 61.5234C164.057 66.9271 169.591 69.6289 176.102 69.6289C181.408 69.6289 185.509 68.2943 188.406 65.625C191.336 62.9557 192.801 60.026 192.801 56.8359C192.801 53.6133 192.068 51.5951 190.604 50.7812C189.139 49.9349 185.786 49.5117 180.545 49.5117V43.0176H202.908V75H196.365L194.559 69.1406C191.759 72.0703 187.43 74.1211 181.57 75.293C179.422 75.7487 176.98 75.9766 174.246 75.9766C171.512 75.9766 168.729 75.6673 165.896 75.0488C163.097 74.4629 160.411 73.5352 157.84 72.2656C155.268 70.9961 152.876 69.3685 150.662 67.3828C148.481 65.3971 146.577 63.0208 144.949 60.2539ZM215.262 38.3789C215.262 32.194 216.206 26.709 218.094 21.9238C219.982 17.1061 222.521 13.1348 225.711 10.0098C231.993 3.85742 240.018 0.78125 249.783 0.78125C259.549 0.78125 267.573 3.80859 273.855 9.86328C280.822 16.5365 284.305 25.9603 284.305 38.1348C284.305 50.3092 281.098 59.668 274.686 66.2109C268.305 72.7214 260.005 75.9766 249.783 75.9766C239.594 75.9766 231.294 72.6725 224.881 66.0645C218.468 59.4564 215.262 50.2279 215.262 38.3789ZM249.93 69.6289C255.626 69.6289 260.411 67.513 264.285 63.2812C269.168 57.9427 271.609 49.821 271.609 38.916C271.609 28.0111 269.526 19.987 265.359 14.8438C261.193 9.70052 255.952 7.12891 249.637 7.12891C243.354 7.12891 238.162 9.70052 234.061 14.8438C229.992 19.9544 227.957 27.6367 227.957 37.8906C227.957 52.6367 231.993 62.3535 240.066 67.041C243.029 68.7663 246.316 69.6289 249.93 69.6289Z" fill="black"/>
</svg>
